<svg role="img" aria-labelledby="xiandu-logo-title" viewBox="0 0 64 64" xmlns="http://www.w3.org/2000/svg">
  <title id="xiandu-logo-title">Xiandu logo</title>
  <defs>
    <linearGradient id="xiandu-bg" x1="9" x2="55" y1="8" y2="58" gradientUnits="userSpaceOnUse">
      <stop stop-color="#064844"/>
      <stop offset="0.52" stop-color="#0D7B70"/>
      <stop offset="1" stop-color="#D39A2E"/>
    </linearGradient>
    <linearGradient id="xiandu-slip" x1="18" x2="47" y1="12" y2="52" gradientUnits="userSpaceOnUse">
      <stop stop-color="#FFF7E7"/>
      <stop offset="1" stop-color="#D7C39C"/>
    </linearGradient>
    <linearGradient id="xiandu-clasp" x1="20" x2="48" y1="21" y2="45" gradientUnits="userSpaceOnUse">
      <stop stop-color="#F6D17A"/>
      <stop offset="1" stop-color="#B97024"/>
    </linearGradient>
  </defs>
  <rect width="64" height="64" rx="16" fill="url(#xiandu-bg)"/>
  <path d="M18 14.5c0-2 1.7-3.5 3.6-3.2l17.1 2.6c1.6.2 2.8 1.6 2.8 3.2v33.5c0 2-1.8 3.5-3.8 3.2l-17-2.9a3.2 3.2 0 0 1-2.7-3.2V14.5Z" fill="#07322F" opacity="0.36"/>
  <path d="M23.5 10.8h18.9c1.8 0 3.3 1.5 3.3 3.3v35.8c0 1.8-1.5 3.3-3.3 3.3H23.5c-1.8 0-3.3-1.5-3.3-3.3V14.1c0-1.8 1.5-3.3 3.3-3.3Z" fill="url(#xiandu-slip)"/>
  <path d="M16.8 15.4c0-1.9 1.8-3.4 3.7-3l18.6 3.4c1.5.3 2.6 1.6 2.6 3.1v31.8c0 1.9-1.8 3.4-3.7 3.1l-18.6-3.4a3.1 3.1 0 0 1-2.6-3.1V15.4Z" fill="url(#xiandu-slip)"/>
  <path d="M23.9 21.1h11.9M23.9 27.1h11.9M23.9 33.1h9.4" fill="none" stroke="#11645B" stroke-linecap="round" stroke-width="2.1" opacity="0.72"/>
  <path d="M42.4 18.5c4.8 2.6 7.4 6.7 7.4 11.6 0 7.5-6.1 13.2-14.6 13.2h-3.9" fill="none" stroke="#FFE7A6" stroke-linecap="round" stroke-width="4.4"/>
  <path d="M42.4 18.5c4.8 2.6 7.4 6.7 7.4 11.6 0 7.5-6.1 13.2-14.6 13.2h-3.9" fill="none" stroke="url(#xiandu-clasp)" stroke-linecap="round" stroke-width="2.5"/>
  <path d="M30.5 39.7 24.8 44l5.7 4.3" fill="none" stroke="#F6D17A" stroke-linecap="round" stroke-linejoin="round" stroke-width="3.1"/>
  <circle cx="43.8" cy="18.9" r="4.7" fill="#F8C75C"/>
  <circle cx="43.8" cy="18.9" r="2" fill="#FFF2C7"/>
</svg>
