<svg role="img" aria-labelledby="xiandu-logo-title" viewBox="0 0 64 64" xmlns="http://www.w3.org/2000/svg">
  <title id="xiandu-logo-title">Xiandu logo</title>
  <defs>
    <linearGradient id="xiandu-solar-bg" x1="7" x2="57" y1="7" y2="57" gradientUnits="userSpaceOnUse">
      <stop stop-color="#56E2FF"/>
      <stop offset="0.25" stop-color="#7F76FF"/>
      <stop offset="0.52" stop-color="#FF62C7"/>
      <stop offset="0.76" stop-color="#FF935C"/>
      <stop offset="1" stop-color="#FFE66A"/>
    </linearGradient>
    <radialGradient id="xiandu-solar-glow" cx="0" cy="0" r="1" gradientTransform="matrix(34 40 -40 34 19 14)" gradientUnits="userSpaceOnUse">
      <stop stop-color="#FFFFFF" stop-opacity="0.72"/>
      <stop offset="0.28" stop-color="#FFFFFF" stop-opacity="0.18"/>
      <stop offset="1" stop-color="#FFFFFF" stop-opacity="0"/>
    </radialGradient>
    <linearGradient id="xiandu-solar-line" x1="17" x2="48" y1="14" y2="45" gradientUnits="userSpaceOnUse">
      <stop stop-color="#FFFFFF"/>
      <stop offset="0.48" stop-color="#FFF8D7"/>
      <stop offset="1" stop-color="#E6FFF9"/>
    </linearGradient>
    <linearGradient id="xiandu-solar-accent" x1="14" x2="50" y1="45" y2="34" gradientUnits="userSpaceOnUse">
      <stop stop-color="#3EF3CC"/>
      <stop offset="0.42" stop-color="#8F76FF"/>
      <stop offset="0.72" stop-color="#FF69CF"/>
      <stop offset="1" stop-color="#FFE36B"/>
    </linearGradient>
  </defs>
  <rect width="64" height="64" rx="17" fill="url(#xiandu-solar-bg)"/>
  <rect width="64" height="64" rx="17" fill="url(#xiandu-solar-glow)"/>
  <path d="M13.5 43.5c7 4.5 17.4 4.7 25.4.2 5.3-3 9.5-8 11.1-13.8" fill="none" stroke="rgba(255,255,255,0.28)" stroke-linecap="round" stroke-width="2.6"/>
  <path d="M32 12.4v4.9M44.8 17.8l-3.4 3.4M50.6 30.6h-4.8M18.2 30.6h-4.8M22.5 21.2l-3.4-3.4" fill="none" stroke="url(#xiandu-solar-line)" stroke-linecap="round" stroke-width="3.2"/>
  <path d="M22.5 29.9a9.5 9.5 0 1 1 19 0 9.5 9.5 0 0 1-19 0Z" fill="rgba(255,255,255,0.08)" stroke="url(#xiandu-solar-line)" stroke-width="3.1"/>
  <path d="M18.2 42.4c5.1-3.9 10-4.3 13.8-1.3 3.8-3 8.7-2.6 13.8 1.3" fill="none" stroke="rgba(255,255,255,0.84)" stroke-linecap="round" stroke-linejoin="round" stroke-width="3"/>
  <path d="M16.5 46.5c7.4 3 15.1 2.1 21.4-1.8 5-3.1 8.9-7.9 10.4-13.3" fill="none" stroke="url(#xiandu-solar-accent)" stroke-linecap="round" stroke-width="2.6"/>
  <path d="M20.1 24.6c2.7-4.5 7.6-7 12.9-6.5 4.6.4 8.5 3.1 10.4 7.1" fill="none" stroke="rgba(255,255,255,0.76)" stroke-linecap="round" stroke-width="2.4"/>
</svg>
