<svg xmlns="http://www.w3.org/2000/svg" width="640" height="220" viewBox="0 0 640 220" role="img" aria-label="Reduced surface-code memory schematic">
  <rect width="640" height="220" fill="#f8fafc"/>
  <g fill="#0f766e" stroke="#134e4a" stroke-width="2">
    <circle cx="110" cy="70" r="18"/>
    <circle cx="170" cy="70" r="18"/>
    <circle cx="230" cy="70" r="18"/>
    <circle cx="110" cy="130" r="18"/>
    <circle cx="170" cy="130" r="18"/>
    <circle cx="230" cy="130" r="18"/>
  </g>
  <g stroke="#64748b" stroke-width="4" stroke-linecap="round">
    <path d="M128 70H152"/>
    <path d="M188 70H212"/>
    <path d="M128 130H152"/>
    <path d="M188 130H212"/>
    <path d="M110 88V112"/>
    <path d="M170 88V112"/>
    <path d="M230 88V112"/>
  </g>
  <rect x="340" y="55" width="190" height="90" rx="8" fill="#e0f2fe" stroke="#0369a1" stroke-width="2"/>
  <path d="M260 100H330" stroke="#0f172a" stroke-width="3" marker-end="url(#arrow)"/>
  <text x="86" y="178" font-family="Arial, sans-serif" font-size="18" fill="#0f172a">physical qubits</text>
  <text x="381" y="108" font-family="Arial, sans-serif" font-size="18" fill="#0f172a">decoder</text>
  <defs>
    <marker id="arrow" markerWidth="10" markerHeight="10" refX="9" refY="3" orient="auto" markerUnits="strokeWidth">
      <path d="M0,0 L0,6 L9,3 z" fill="#0f172a"/>
    </marker>
  </defs>
</svg>
